REM MD5 88b5ace34db2a42b0aa5c8d5fa666dfd
FILE "Activision Classics (USA).bin" BINARY
  TRACK 01 MODE2/2352
    INDEX 01 00:00:00
  TRACK 02 AUDIO
    INDEX 00 06:54:62
    INDEX 01 06:56:62
  TRACK 03 AUDIO
    INDEX 00 07:49:08
    INDEX 01 07:51:08
REM LEADOUT 10:54:08
